<svg xmlns="http://www.w3.org/2000/svg" width="24" height="24" viewBox="0 0 24 24">
  <path d="M20.49,3.51a12,12,0,1,0,0,17A12,12,0,0,0,20.49,3.51ZM19.18,19.17a10.15,10.15,0,0,1-14.35,0,10.14,10.14,0,0,1,0-14.34A10.14,10.14,0,0,1,19.18,19.17Z" />
  <path d="M15.74,14.49,13.25,12l2.49-2.49a.89.89,0,0,0,0-1.25.86.86,0,0,0-1.24,0L12,10.75,9.5,8.26a.86.86,0,0,0-1.24,0,.88.88,0,0,0,0,1.25L10.75,12,8.26,14.49a.88.88,0,0,0,0,1.25.89.89,0,0,0,.62.26.87.87,0,0,0,.62-.26L12,13.25l2.5,2.49a.87.87,0,0,0,.62.26.89.89,0,0,0,.62-.26A.88.88,0,0,0,15.74,14.49Z" />
</svg>